<mxfile host="app.diagrams.net" modified="2024-05-01T16:08:01.426Z" agent="Mozilla/5.0 (Windows NT 10.0; Win64; x64; rv:126.0) Gecko/20100101 Firefox/126.0" etag="TemoBayCfqaQ6XwAyD6W" version="24.3.1" type="device">
  <diagram name="Page-1" id="B9voW5ncnK0YKJ4ArBj8">
    <mxGraphModel dx="3002" dy="2540" grid="1" gridSize="10" guides="1" tooltips="1" connect="1" arrows="1" fold="1" page="1" pageScale="1" pageWidth="827" pageHeight="1169" math="0" shadow="0">
      <root>
        <mxCell id="0" />
        <mxCell id="1" parent="0" />
        <mxCell id="HrmXleMLPZBCq29RgUVU-88" value="" style="rounded=0;whiteSpace=wrap;html=1;" parent="1" vertex="1">
          <mxGeometry x="80" y="-430" width="860" height="510" as="geometry" />
        </mxCell>
        <mxCell id="HrmXleMLPZBCq29RgUVU-9" style="edgeStyle=orthogonalEdgeStyle;rounded=0;orthogonalLoop=1;jettySize=auto;html=1;entryX=0.5;entryY=1;entryDx=0;entryDy=0;" parent="1" source="HrmXleMLPZBCq29RgUVU-2" target="HrmXleMLPZBCq29RgUVU-5" edge="1">
          <mxGeometry relative="1" as="geometry" />
        </mxCell>
        <mxCell id="HrmXleMLPZBCq29RgUVU-10" style="edgeStyle=orthogonalEdgeStyle;rounded=0;orthogonalLoop=1;jettySize=auto;html=1;exitX=0.5;exitY=0;exitDx=0;exitDy=0;" parent="1" source="HrmXleMLPZBCq29RgUVU-2" target="HrmXleMLPZBCq29RgUVU-6" edge="1">
          <mxGeometry relative="1" as="geometry" />
        </mxCell>
        <mxCell id="HrmXleMLPZBCq29RgUVU-11" style="edgeStyle=orthogonalEdgeStyle;rounded=0;orthogonalLoop=1;jettySize=auto;html=1;exitX=0.5;exitY=0;exitDx=0;exitDy=0;" parent="1" source="HrmXleMLPZBCq29RgUVU-2" target="HrmXleMLPZBCq29RgUVU-7" edge="1">
          <mxGeometry relative="1" as="geometry" />
        </mxCell>
        <mxCell id="HrmXleMLPZBCq29RgUVU-12" style="edgeStyle=orthogonalEdgeStyle;rounded=0;orthogonalLoop=1;jettySize=auto;html=1;exitX=0.5;exitY=0;exitDx=0;exitDy=0;entryX=0.5;entryY=1;entryDx=0;entryDy=0;" parent="1" source="HrmXleMLPZBCq29RgUVU-2" target="HrmXleMLPZBCq29RgUVU-4" edge="1">
          <mxGeometry relative="1" as="geometry" />
        </mxCell>
        <mxCell id="HrmXleMLPZBCq29RgUVU-2" value="&lt;div&gt;Modes&lt;/div&gt;" style="rounded=0;whiteSpace=wrap;html=1;" parent="1" vertex="1">
          <mxGeometry x="520" y="250" width="80" height="80" as="geometry" />
        </mxCell>
        <mxCell id="HrmXleMLPZBCq29RgUVU-13" style="edgeStyle=orthogonalEdgeStyle;rounded=0;orthogonalLoop=1;jettySize=auto;html=1;entryX=0.5;entryY=1;entryDx=0;entryDy=0;" parent="1" source="HrmXleMLPZBCq29RgUVU-3" target="HrmXleMLPZBCq29RgUVU-2" edge="1">
          <mxGeometry relative="1" as="geometry" />
        </mxCell>
        <mxCell id="HrmXleMLPZBCq29RgUVU-18" style="edgeStyle=orthogonalEdgeStyle;rounded=0;orthogonalLoop=1;jettySize=auto;html=1;exitX=1;exitY=0.5;exitDx=0;exitDy=0;" parent="1" source="HrmXleMLPZBCq29RgUVU-3" target="HrmXleMLPZBCq29RgUVU-17" edge="1">
          <mxGeometry relative="1" as="geometry" />
        </mxCell>
        <mxCell id="HrmXleMLPZBCq29RgUVU-25" style="edgeStyle=orthogonalEdgeStyle;rounded=0;orthogonalLoop=1;jettySize=auto;html=1;" parent="1" source="HrmXleMLPZBCq29RgUVU-3" target="HrmXleMLPZBCq29RgUVU-24" edge="1">
          <mxGeometry relative="1" as="geometry" />
        </mxCell>
        <mxCell id="HrmXleMLPZBCq29RgUVU-36" style="edgeStyle=orthogonalEdgeStyle;rounded=0;orthogonalLoop=1;jettySize=auto;html=1;" parent="1" source="HrmXleMLPZBCq29RgUVU-3" target="HrmXleMLPZBCq29RgUVU-35" edge="1">
          <mxGeometry relative="1" as="geometry" />
        </mxCell>
        <mxCell id="HrmXleMLPZBCq29RgUVU-71" style="edgeStyle=orthogonalEdgeStyle;rounded=0;orthogonalLoop=1;jettySize=auto;html=1;" parent="1" source="HrmXleMLPZBCq29RgUVU-3" target="HrmXleMLPZBCq29RgUVU-70" edge="1">
          <mxGeometry relative="1" as="geometry" />
        </mxCell>
        <mxCell id="x0lHwkU5bO4c8g3vtblC-34" style="edgeStyle=orthogonalEdgeStyle;rounded=0;orthogonalLoop=1;jettySize=auto;html=1;" edge="1" parent="1" source="HrmXleMLPZBCq29RgUVU-3" target="x0lHwkU5bO4c8g3vtblC-32">
          <mxGeometry relative="1" as="geometry" />
        </mxCell>
        <mxCell id="HrmXleMLPZBCq29RgUVU-3" value="&lt;div&gt;Pokemon&lt;/div&gt;&lt;div&gt;Player&lt;/div&gt;" style="ellipse;whiteSpace=wrap;html=1;aspect=fixed;" parent="1" vertex="1">
          <mxGeometry x="520" y="920" width="80" height="80" as="geometry" />
        </mxCell>
        <mxCell id="HrmXleMLPZBCq29RgUVU-87" style="edgeStyle=orthogonalEdgeStyle;rounded=0;orthogonalLoop=1;jettySize=auto;html=1;" parent="1" source="HrmXleMLPZBCq29RgUVU-4" edge="1">
          <mxGeometry relative="1" as="geometry">
            <mxPoint x="365" y="80" as="targetPoint" />
          </mxGeometry>
        </mxCell>
        <mxCell id="HrmXleMLPZBCq29RgUVU-4" value="&lt;div&gt;Base&lt;/div&gt;" style="rounded=0;whiteSpace=wrap;html=1;" parent="1" vertex="1">
          <mxGeometry x="305" y="120" width="120" height="60" as="geometry" />
        </mxCell>
        <mxCell id="HrmXleMLPZBCq29RgUVU-62" style="edgeStyle=orthogonalEdgeStyle;rounded=0;orthogonalLoop=1;jettySize=auto;html=1;" parent="1" source="HrmXleMLPZBCq29RgUVU-5" target="HrmXleMLPZBCq29RgUVU-61" edge="1">
          <mxGeometry relative="1" as="geometry" />
        </mxCell>
        <mxCell id="HrmXleMLPZBCq29RgUVU-76" style="edgeStyle=orthogonalEdgeStyle;rounded=0;orthogonalLoop=1;jettySize=auto;html=1;exitX=0.5;exitY=0;exitDx=0;exitDy=0;entryX=0.5;entryY=1;entryDx=0;entryDy=0;" parent="1" source="HrmXleMLPZBCq29RgUVU-5" target="HrmXleMLPZBCq29RgUVU-78" edge="1">
          <mxGeometry relative="1" as="geometry">
            <mxPoint x="750" y="-120" as="targetPoint" />
          </mxGeometry>
        </mxCell>
        <mxCell id="HrmXleMLPZBCq29RgUVU-77" style="edgeStyle=orthogonalEdgeStyle;rounded=0;orthogonalLoop=1;jettySize=auto;html=1;exitX=0.5;exitY=0;exitDx=0;exitDy=0;" parent="1" source="HrmXleMLPZBCq29RgUVU-5" target="HrmXleMLPZBCq29RgUVU-22" edge="1">
          <mxGeometry relative="1" as="geometry" />
        </mxCell>
        <mxCell id="HrmXleMLPZBCq29RgUVU-82" style="edgeStyle=orthogonalEdgeStyle;rounded=0;orthogonalLoop=1;jettySize=auto;html=1;" parent="1" source="HrmXleMLPZBCq29RgUVU-5" target="HrmXleMLPZBCq29RgUVU-79" edge="1">
          <mxGeometry relative="1" as="geometry">
            <Array as="points">
              <mxPoint x="499" />
              <mxPoint x="336" />
            </Array>
          </mxGeometry>
        </mxCell>
        <mxCell id="HrmXleMLPZBCq29RgUVU-5" value="&lt;div&gt;Attack&lt;/div&gt;" style="rounded=0;whiteSpace=wrap;html=1;" parent="1" vertex="1">
          <mxGeometry x="439" y="120" width="120" height="60" as="geometry" />
        </mxCell>
        <mxCell id="HrmXleMLPZBCq29RgUVU-84" style="edgeStyle=orthogonalEdgeStyle;rounded=0;orthogonalLoop=1;jettySize=auto;html=1;" parent="1" source="HrmXleMLPZBCq29RgUVU-6" edge="1">
          <mxGeometry relative="1" as="geometry">
            <mxPoint x="635" y="80" as="targetPoint" />
          </mxGeometry>
        </mxCell>
        <mxCell id="HrmXleMLPZBCq29RgUVU-6" value="&lt;div&gt;Defense&lt;/div&gt;" style="rounded=0;whiteSpace=wrap;html=1;" parent="1" vertex="1">
          <mxGeometry x="575" y="120" width="120" height="60" as="geometry" />
        </mxCell>
        <mxCell id="HrmXleMLPZBCq29RgUVU-85" style="edgeStyle=orthogonalEdgeStyle;rounded=0;orthogonalLoop=1;jettySize=auto;html=1;" parent="1" source="HrmXleMLPZBCq29RgUVU-7" edge="1">
          <mxGeometry relative="1" as="geometry">
            <mxPoint x="775" y="80" as="targetPoint" />
          </mxGeometry>
        </mxCell>
        <mxCell id="HrmXleMLPZBCq29RgUVU-7" value="&lt;div&gt;Speed&lt;/div&gt;" style="rounded=0;whiteSpace=wrap;html=1;" parent="1" vertex="1">
          <mxGeometry x="715" y="120" width="120" height="60" as="geometry" />
        </mxCell>
        <mxCell id="HrmXleMLPZBCq29RgUVU-15" value="&lt;div&gt;Name&lt;/div&gt;" style="rounded=0;whiteSpace=wrap;html=1;" parent="1" vertex="1">
          <mxGeometry x="-1430" y="520" width="120" height="60" as="geometry" />
        </mxCell>
        <mxCell id="HrmXleMLPZBCq29RgUVU-27" style="edgeStyle=orthogonalEdgeStyle;rounded=0;orthogonalLoop=1;jettySize=auto;html=1;entryX=0.5;entryY=1;entryDx=0;entryDy=0;" parent="1" source="HrmXleMLPZBCq29RgUVU-17" target="HrmXleMLPZBCq29RgUVU-26" edge="1">
          <mxGeometry relative="1" as="geometry" />
        </mxCell>
        <mxCell id="HrmXleMLPZBCq29RgUVU-29" style="edgeStyle=orthogonalEdgeStyle;rounded=0;orthogonalLoop=1;jettySize=auto;html=1;" parent="1" source="HrmXleMLPZBCq29RgUVU-17" target="HrmXleMLPZBCq29RgUVU-28" edge="1">
          <mxGeometry relative="1" as="geometry" />
        </mxCell>
        <mxCell id="HrmXleMLPZBCq29RgUVU-32" style="edgeStyle=orthogonalEdgeStyle;rounded=0;orthogonalLoop=1;jettySize=auto;html=1;" parent="1" source="HrmXleMLPZBCq29RgUVU-17" target="HrmXleMLPZBCq29RgUVU-31" edge="1">
          <mxGeometry relative="1" as="geometry" />
        </mxCell>
        <mxCell id="HrmXleMLPZBCq29RgUVU-17" value="&lt;div&gt;LevelStats&lt;/div&gt;" style="rounded=0;whiteSpace=wrap;html=1;" parent="1" vertex="1">
          <mxGeometry x="700" y="640" width="120" height="60" as="geometry" />
        </mxCell>
        <mxCell id="HrmXleMLPZBCq29RgUVU-22" value="Mode " style="rounded=0;whiteSpace=wrap;html=1;" parent="1" vertex="1">
          <mxGeometry x="100" y="-180" width="120" height="60" as="geometry" />
        </mxCell>
        <mxCell id="HrmXleMLPZBCq29RgUVU-50" style="edgeStyle=orthogonalEdgeStyle;rounded=0;orthogonalLoop=1;jettySize=auto;html=1;" parent="1" source="HrmXleMLPZBCq29RgUVU-24" target="HrmXleMLPZBCq29RgUVU-47" edge="1">
          <mxGeometry relative="1" as="geometry" />
        </mxCell>
        <mxCell id="HrmXleMLPZBCq29RgUVU-51" style="edgeStyle=orthogonalEdgeStyle;rounded=0;orthogonalLoop=1;jettySize=auto;html=1;entryX=0.5;entryY=1;entryDx=0;entryDy=0;" parent="1" source="HrmXleMLPZBCq29RgUVU-24" target="HrmXleMLPZBCq29RgUVU-46" edge="1">
          <mxGeometry relative="1" as="geometry" />
        </mxCell>
        <mxCell id="HrmXleMLPZBCq29RgUVU-52" style="edgeStyle=orthogonalEdgeStyle;rounded=0;orthogonalLoop=1;jettySize=auto;html=1;entryX=1;entryY=0.5;entryDx=0;entryDy=0;" parent="1" source="HrmXleMLPZBCq29RgUVU-24" target="HrmXleMLPZBCq29RgUVU-48" edge="1">
          <mxGeometry relative="1" as="geometry" />
        </mxCell>
        <mxCell id="HrmXleMLPZBCq29RgUVU-53" style="edgeStyle=orthogonalEdgeStyle;rounded=0;orthogonalLoop=1;jettySize=auto;html=1;entryX=0;entryY=0.5;entryDx=0;entryDy=0;" parent="1" source="HrmXleMLPZBCq29RgUVU-24" target="HrmXleMLPZBCq29RgUVU-49" edge="1">
          <mxGeometry relative="1" as="geometry" />
        </mxCell>
        <mxCell id="HrmXleMLPZBCq29RgUVU-57" style="edgeStyle=orthogonalEdgeStyle;rounded=0;orthogonalLoop=1;jettySize=auto;html=1;entryX=0.5;entryY=1;entryDx=0;entryDy=0;" parent="1" source="HrmXleMLPZBCq29RgUVU-24" target="HrmXleMLPZBCq29RgUVU-55" edge="1">
          <mxGeometry relative="1" as="geometry" />
        </mxCell>
        <mxCell id="HrmXleMLPZBCq29RgUVU-58" style="edgeStyle=orthogonalEdgeStyle;rounded=0;orthogonalLoop=1;jettySize=auto;html=1;entryX=1;entryY=0.5;entryDx=0;entryDy=0;" parent="1" source="HrmXleMLPZBCq29RgUVU-24" target="HrmXleMLPZBCq29RgUVU-54" edge="1">
          <mxGeometry relative="1" as="geometry" />
        </mxCell>
        <mxCell id="HrmXleMLPZBCq29RgUVU-59" style="edgeStyle=orthogonalEdgeStyle;rounded=0;orthogonalLoop=1;jettySize=auto;html=1;entryX=0;entryY=0.5;entryDx=0;entryDy=0;" parent="1" source="HrmXleMLPZBCq29RgUVU-24" target="HrmXleMLPZBCq29RgUVU-56" edge="1">
          <mxGeometry relative="1" as="geometry" />
        </mxCell>
        <mxCell id="HrmXleMLPZBCq29RgUVU-24" value="&lt;div&gt;BasicStats&lt;/div&gt;" style="rounded=0;whiteSpace=wrap;html=1;" parent="1" vertex="1">
          <mxGeometry x="1050" y="640" width="120" height="60" as="geometry" />
        </mxCell>
        <mxCell id="HrmXleMLPZBCq29RgUVU-26" value="Level" style="rounded=0;whiteSpace=wrap;html=1;" parent="1" vertex="1">
          <mxGeometry x="700" y="520" width="120" height="60" as="geometry" />
        </mxCell>
        <mxCell id="HrmXleMLPZBCq29RgUVU-28" value="XP" style="rounded=0;whiteSpace=wrap;html=1;" parent="1" vertex="1">
          <mxGeometry x="580" y="520" width="120" height="60" as="geometry" />
        </mxCell>
        <mxCell id="HrmXleMLPZBCq29RgUVU-31" value="XPMax" style="rounded=0;whiteSpace=wrap;html=1;" parent="1" vertex="1">
          <mxGeometry x="820" y="520" width="120" height="60" as="geometry" />
        </mxCell>
        <mxCell id="HrmXleMLPZBCq29RgUVU-33" value="Description" style="rounded=0;whiteSpace=wrap;html=1;" parent="1" vertex="1">
          <mxGeometry x="-1290" y="520" width="120" height="60" as="geometry" />
        </mxCell>
        <mxCell id="HrmXleMLPZBCq29RgUVU-37" style="edgeStyle=orthogonalEdgeStyle;rounded=0;orthogonalLoop=1;jettySize=auto;html=1;" parent="1" source="HrmXleMLPZBCq29RgUVU-35" target="HrmXleMLPZBCq29RgUVU-15" edge="1">
          <mxGeometry relative="1" as="geometry" />
        </mxCell>
        <mxCell id="HrmXleMLPZBCq29RgUVU-38" style="edgeStyle=orthogonalEdgeStyle;rounded=0;orthogonalLoop=1;jettySize=auto;html=1;entryX=0.5;entryY=1;entryDx=0;entryDy=0;" parent="1" source="HrmXleMLPZBCq29RgUVU-35" target="HrmXleMLPZBCq29RgUVU-33" edge="1">
          <mxGeometry relative="1" as="geometry" />
        </mxCell>
        <mxCell id="HrmXleMLPZBCq29RgUVU-42" style="edgeStyle=orthogonalEdgeStyle;rounded=0;orthogonalLoop=1;jettySize=auto;html=1;entryX=0.5;entryY=1;entryDx=0;entryDy=0;" parent="1" source="HrmXleMLPZBCq29RgUVU-35" target="HrmXleMLPZBCq29RgUVU-33" edge="1">
          <mxGeometry relative="1" as="geometry" />
        </mxCell>
        <mxCell id="x0lHwkU5bO4c8g3vtblC-2" style="edgeStyle=orthogonalEdgeStyle;rounded=0;orthogonalLoop=1;jettySize=auto;html=1;entryX=0.5;entryY=1;entryDx=0;entryDy=0;" edge="1" parent="1" source="HrmXleMLPZBCq29RgUVU-35" target="x0lHwkU5bO4c8g3vtblC-1">
          <mxGeometry relative="1" as="geometry" />
        </mxCell>
        <mxCell id="x0lHwkU5bO4c8g3vtblC-3" style="edgeStyle=orthogonalEdgeStyle;rounded=0;orthogonalLoop=1;jettySize=auto;html=1;entryX=0.5;entryY=1;entryDx=0;entryDy=0;" edge="1" parent="1" source="HrmXleMLPZBCq29RgUVU-35" target="HrmXleMLPZBCq29RgUVU-39">
          <mxGeometry relative="1" as="geometry" />
        </mxCell>
        <mxCell id="x0lHwkU5bO4c8g3vtblC-5" style="edgeStyle=orthogonalEdgeStyle;rounded=0;orthogonalLoop=1;jettySize=auto;html=1;" edge="1" parent="1" source="HrmXleMLPZBCq29RgUVU-35" target="x0lHwkU5bO4c8g3vtblC-4">
          <mxGeometry relative="1" as="geometry" />
        </mxCell>
        <mxCell id="x0lHwkU5bO4c8g3vtblC-6" style="edgeStyle=orthogonalEdgeStyle;rounded=0;orthogonalLoop=1;jettySize=auto;html=1;" edge="1" parent="1" source="HrmXleMLPZBCq29RgUVU-35" target="HrmXleMLPZBCq29RgUVU-44">
          <mxGeometry relative="1" as="geometry" />
        </mxCell>
        <mxCell id="x0lHwkU5bO4c8g3vtblC-16" style="edgeStyle=orthogonalEdgeStyle;rounded=0;orthogonalLoop=1;jettySize=auto;html=1;entryX=0.5;entryY=1;entryDx=0;entryDy=0;" edge="1" parent="1" source="HrmXleMLPZBCq29RgUVU-35" target="x0lHwkU5bO4c8g3vtblC-7">
          <mxGeometry relative="1" as="geometry" />
        </mxCell>
        <mxCell id="x0lHwkU5bO4c8g3vtblC-18" style="edgeStyle=orthogonalEdgeStyle;rounded=0;orthogonalLoop=1;jettySize=auto;html=1;" edge="1" parent="1" source="HrmXleMLPZBCq29RgUVU-35" target="x0lHwkU5bO4c8g3vtblC-17">
          <mxGeometry relative="1" as="geometry" />
        </mxCell>
        <mxCell id="HrmXleMLPZBCq29RgUVU-35" value="&lt;div&gt;Pokemon&lt;/div&gt;" style="rounded=0;whiteSpace=wrap;html=1;" parent="1" vertex="1">
          <mxGeometry x="-1220" y="640" width="146" height="60" as="geometry" />
        </mxCell>
        <mxCell id="HrmXleMLPZBCq29RgUVU-39" value="&lt;div&gt;Type&lt;/div&gt;&lt;div&gt;PokemonTypeEnum&lt;br&gt;&lt;/div&gt;" style="rounded=0;whiteSpace=wrap;html=1;" parent="1" vertex="1">
          <mxGeometry x="-1010" y="520" width="120" height="60" as="geometry" />
        </mxCell>
        <mxCell id="HrmXleMLPZBCq29RgUVU-44" value="&lt;div&gt;Evolutions&lt;/div&gt;&lt;div&gt;?&lt;/div&gt;" style="rounded=0;whiteSpace=wrap;html=1;" parent="1" vertex="1">
          <mxGeometry x="-870" y="520" width="120" height="60" as="geometry" />
        </mxCell>
        <mxCell id="HrmXleMLPZBCq29RgUVU-46" value="Hp" style="rounded=0;whiteSpace=wrap;html=1;" parent="1" vertex="1">
          <mxGeometry x="980" y="520" width="120" height="60" as="geometry" />
        </mxCell>
        <mxCell id="HrmXleMLPZBCq29RgUVU-47" value="HpMax" style="whiteSpace=wrap;html=1;" parent="1" vertex="1">
          <mxGeometry x="1120" y="520" width="120" height="60" as="geometry" />
        </mxCell>
        <mxCell id="HrmXleMLPZBCq29RgUVU-48" value="Energy" style="rounded=0;whiteSpace=wrap;html=1;" parent="1" vertex="1">
          <mxGeometry x="970" y="430" width="120" height="60" as="geometry" />
        </mxCell>
        <mxCell id="HrmXleMLPZBCq29RgUVU-49" value="EnergyMax" style="rounded=0;whiteSpace=wrap;html=1;" parent="1" vertex="1">
          <mxGeometry x="1130" y="430" width="120" height="60" as="geometry" />
        </mxCell>
        <mxCell id="HrmXleMLPZBCq29RgUVU-54" value="Attack" style="rounded=0;whiteSpace=wrap;html=1;" parent="1" vertex="1">
          <mxGeometry x="970" y="340" width="120" height="60" as="geometry" />
        </mxCell>
        <mxCell id="HrmXleMLPZBCq29RgUVU-55" value="Speed" style="rounded=0;whiteSpace=wrap;html=1;" parent="1" vertex="1">
          <mxGeometry x="1050" y="260" width="120" height="60" as="geometry" />
        </mxCell>
        <mxCell id="HrmXleMLPZBCq29RgUVU-56" value="&lt;div&gt;Defense&lt;/div&gt;" style="rounded=0;whiteSpace=wrap;html=1;" parent="1" vertex="1">
          <mxGeometry x="1130" y="340" width="120" height="60" as="geometry" />
        </mxCell>
        <mxCell id="HrmXleMLPZBCq29RgUVU-67" style="edgeStyle=orthogonalEdgeStyle;rounded=0;orthogonalLoop=1;jettySize=auto;html=1;entryX=1;entryY=0.5;entryDx=0;entryDy=0;" parent="1" source="HrmXleMLPZBCq29RgUVU-61" target="HrmXleMLPZBCq29RgUVU-64" edge="1">
          <mxGeometry relative="1" as="geometry" />
        </mxCell>
        <mxCell id="HrmXleMLPZBCq29RgUVU-68" style="edgeStyle=orthogonalEdgeStyle;rounded=0;orthogonalLoop=1;jettySize=auto;html=1;entryX=0;entryY=0.5;entryDx=0;entryDy=0;" parent="1" source="HrmXleMLPZBCq29RgUVU-61" target="HrmXleMLPZBCq29RgUVU-65" edge="1">
          <mxGeometry relative="1" as="geometry" />
        </mxCell>
        <mxCell id="HrmXleMLPZBCq29RgUVU-69" style="edgeStyle=orthogonalEdgeStyle;rounded=0;orthogonalLoop=1;jettySize=auto;html=1;" parent="1" source="HrmXleMLPZBCq29RgUVU-61" target="HrmXleMLPZBCq29RgUVU-66" edge="1">
          <mxGeometry relative="1" as="geometry" />
        </mxCell>
        <mxCell id="HrmXleMLPZBCq29RgUVU-61" value="&lt;div&gt;ModeStats&lt;/div&gt;" style="rounded=0;whiteSpace=wrap;html=1;" parent="1" vertex="1">
          <mxGeometry x="439" y="-180" width="120" height="60" as="geometry" />
        </mxCell>
        <mxCell id="HrmXleMLPZBCq29RgUVU-64" value="Attack" style="rounded=0;whiteSpace=wrap;html=1;" parent="1" vertex="1">
          <mxGeometry x="355" y="-320" width="120" height="60" as="geometry" />
        </mxCell>
        <mxCell id="HrmXleMLPZBCq29RgUVU-65" value="Defense" style="rounded=0;whiteSpace=wrap;html=1;" parent="1" vertex="1">
          <mxGeometry x="525" y="-320" width="120" height="60" as="geometry" />
        </mxCell>
        <mxCell id="HrmXleMLPZBCq29RgUVU-66" value="&lt;div&gt;Speed&lt;/div&gt;" style="rounded=0;whiteSpace=wrap;html=1;" parent="1" vertex="1">
          <mxGeometry x="439" y="-410" width="120" height="60" as="geometry" />
        </mxCell>
        <mxCell id="x0lHwkU5bO4c8g3vtblC-29" style="edgeStyle=orthogonalEdgeStyle;rounded=0;orthogonalLoop=1;jettySize=auto;html=1;" edge="1" parent="1" source="HrmXleMLPZBCq29RgUVU-70" target="x0lHwkU5bO4c8g3vtblC-28">
          <mxGeometry relative="1" as="geometry" />
        </mxCell>
        <mxCell id="x0lHwkU5bO4c8g3vtblC-31" style="edgeStyle=orthogonalEdgeStyle;rounded=0;orthogonalLoop=1;jettySize=auto;html=1;entryX=0.5;entryY=1;entryDx=0;entryDy=0;" edge="1" parent="1" source="HrmXleMLPZBCq29RgUVU-70" target="x0lHwkU5bO4c8g3vtblC-30">
          <mxGeometry relative="1" as="geometry" />
        </mxCell>
        <mxCell id="x0lHwkU5bO4c8g3vtblC-35" style="edgeStyle=orthogonalEdgeStyle;rounded=0;orthogonalLoop=1;jettySize=auto;html=1;entryX=0.5;entryY=1;entryDx=0;entryDy=0;" edge="1" parent="1" source="HrmXleMLPZBCq29RgUVU-70" target="x0lHwkU5bO4c8g3vtblC-30">
          <mxGeometry relative="1" as="geometry" />
        </mxCell>
        <mxCell id="x0lHwkU5bO4c8g3vtblC-36" style="edgeStyle=orthogonalEdgeStyle;rounded=0;orthogonalLoop=1;jettySize=auto;html=1;entryX=0.5;entryY=1;entryDx=0;entryDy=0;" edge="1" parent="1" source="HrmXleMLPZBCq29RgUVU-70" target="HrmXleMLPZBCq29RgUVU-72">
          <mxGeometry relative="1" as="geometry" />
        </mxCell>
        <mxCell id="HrmXleMLPZBCq29RgUVU-70" value="PlayerAttributes" style="rounded=0;whiteSpace=wrap;html=1;" parent="1" vertex="1">
          <mxGeometry x="184" y="640" width="120" height="60" as="geometry" />
        </mxCell>
        <mxCell id="HrmXleMLPZBCq29RgUVU-72" value="Name" style="rounded=0;whiteSpace=wrap;html=1;" parent="1" vertex="1">
          <mxGeometry x="54.5" y="510" width="120" height="60" as="geometry" />
        </mxCell>
        <mxCell id="HrmXleMLPZBCq29RgUVU-78" value="&lt;div&gt;Movements&lt;/div&gt;" style="whiteSpace=wrap;html=1;aspect=fixed;" parent="1" vertex="1">
          <mxGeometry x="680" y="-240" width="120" height="120" as="geometry" />
        </mxCell>
        <mxCell id="HrmXleMLPZBCq29RgUVU-79" value="Mesh" style="rounded=0;whiteSpace=wrap;html=1;" parent="1" vertex="1">
          <mxGeometry x="276" y="-180" width="120" height="60" as="geometry" />
        </mxCell>
        <mxCell id="x0lHwkU5bO4c8g3vtblC-1" value="&lt;div&gt;ID&lt;/div&gt;&lt;div&gt;Guid&lt;br&gt;&lt;/div&gt;" style="rounded=0;whiteSpace=wrap;html=1;" vertex="1" parent="1">
          <mxGeometry x="-1570" y="520" width="120" height="60" as="geometry" />
        </mxCell>
        <mxCell id="x0lHwkU5bO4c8g3vtblC-4" value="Pokekemon&lt;br&gt;PokemonEnum" style="rounded=0;whiteSpace=wrap;html=1;" vertex="1" parent="1">
          <mxGeometry x="-1150" y="520" width="120" height="60" as="geometry" />
        </mxCell>
        <mxCell id="x0lHwkU5bO4c8g3vtblC-9" style="edgeStyle=orthogonalEdgeStyle;rounded=0;orthogonalLoop=1;jettySize=auto;html=1;" edge="1" parent="1" source="x0lHwkU5bO4c8g3vtblC-7" target="x0lHwkU5bO4c8g3vtblC-8">
          <mxGeometry relative="1" as="geometry" />
        </mxCell>
        <mxCell id="x0lHwkU5bO4c8g3vtblC-11" style="edgeStyle=orthogonalEdgeStyle;rounded=0;orthogonalLoop=1;jettySize=auto;html=1;" edge="1" parent="1" source="x0lHwkU5bO4c8g3vtblC-7" target="x0lHwkU5bO4c8g3vtblC-10">
          <mxGeometry relative="1" as="geometry" />
        </mxCell>
        <mxCell id="x0lHwkU5bO4c8g3vtblC-13" style="edgeStyle=orthogonalEdgeStyle;rounded=0;orthogonalLoop=1;jettySize=auto;html=1;entryX=0.5;entryY=1;entryDx=0;entryDy=0;" edge="1" parent="1" source="x0lHwkU5bO4c8g3vtblC-7" target="x0lHwkU5bO4c8g3vtblC-12">
          <mxGeometry relative="1" as="geometry" />
        </mxCell>
        <mxCell id="x0lHwkU5bO4c8g3vtblC-15" style="edgeStyle=orthogonalEdgeStyle;rounded=0;orthogonalLoop=1;jettySize=auto;html=1;" edge="1" parent="1" source="x0lHwkU5bO4c8g3vtblC-7" target="x0lHwkU5bO4c8g3vtblC-14">
          <mxGeometry relative="1" as="geometry" />
        </mxCell>
        <mxCell id="x0lHwkU5bO4c8g3vtblC-7" value="&lt;div&gt;ProfileImages&lt;/div&gt;" style="rounded=0;whiteSpace=wrap;html=1;" vertex="1" parent="1">
          <mxGeometry x="-700" y="520" width="120" height="60" as="geometry" />
        </mxCell>
        <mxCell id="x0lHwkU5bO4c8g3vtblC-8" value="ProfileBaseImage" style="rounded=0;whiteSpace=wrap;html=1;" vertex="1" parent="1">
          <mxGeometry x="-770" y="340" width="120" height="60" as="geometry" />
        </mxCell>
        <mxCell id="x0lHwkU5bO4c8g3vtblC-10" value="ProfileAttackImage" style="rounded=0;whiteSpace=wrap;html=1;" vertex="1" parent="1">
          <mxGeometry x="-770" y="420" width="120" height="60" as="geometry" />
        </mxCell>
        <mxCell id="x0lHwkU5bO4c8g3vtblC-12" value="&lt;div&gt;ProfileDefenseImage&lt;/div&gt;" style="rounded=0;whiteSpace=wrap;html=1;" vertex="1" parent="1">
          <mxGeometry x="-630" y="420" width="120" height="60" as="geometry" />
        </mxCell>
        <mxCell id="x0lHwkU5bO4c8g3vtblC-14" value="ProfileSpeedImage" style="rounded=0;whiteSpace=wrap;html=1;" vertex="1" parent="1">
          <mxGeometry x="-630" y="340" width="120" height="60" as="geometry" />
        </mxCell>
        <mxCell id="x0lHwkU5bO4c8g3vtblC-23" style="edgeStyle=orthogonalEdgeStyle;rounded=0;orthogonalLoop=1;jettySize=auto;html=1;" edge="1" parent="1" source="x0lHwkU5bO4c8g3vtblC-17" target="x0lHwkU5bO4c8g3vtblC-21">
          <mxGeometry relative="1" as="geometry" />
        </mxCell>
        <mxCell id="x0lHwkU5bO4c8g3vtblC-24" style="edgeStyle=orthogonalEdgeStyle;rounded=0;orthogonalLoop=1;jettySize=auto;html=1;entryX=0.5;entryY=1;entryDx=0;entryDy=0;" edge="1" parent="1" source="x0lHwkU5bO4c8g3vtblC-17" target="x0lHwkU5bO4c8g3vtblC-22">
          <mxGeometry relative="1" as="geometry" />
        </mxCell>
        <mxCell id="x0lHwkU5bO4c8g3vtblC-25" style="edgeStyle=orthogonalEdgeStyle;rounded=0;orthogonalLoop=1;jettySize=auto;html=1;entryX=0.5;entryY=1;entryDx=0;entryDy=0;" edge="1" parent="1" source="x0lHwkU5bO4c8g3vtblC-17" target="x0lHwkU5bO4c8g3vtblC-19">
          <mxGeometry relative="1" as="geometry" />
        </mxCell>
        <mxCell id="x0lHwkU5bO4c8g3vtblC-26" style="edgeStyle=orthogonalEdgeStyle;rounded=0;orthogonalLoop=1;jettySize=auto;html=1;" edge="1" parent="1" source="x0lHwkU5bO4c8g3vtblC-17" target="x0lHwkU5bO4c8g3vtblC-20">
          <mxGeometry relative="1" as="geometry" />
        </mxCell>
        <mxCell id="x0lHwkU5bO4c8g3vtblC-17" value="&lt;div&gt;PokemonMeshes&lt;/div&gt;" style="rounded=0;whiteSpace=wrap;html=1;" vertex="1" parent="1">
          <mxGeometry x="-400" y="525" width="120" height="60" as="geometry" />
        </mxCell>
        <mxCell id="x0lHwkU5bO4c8g3vtblC-19" value="BaseMesh" style="rounded=0;whiteSpace=wrap;html=1;" vertex="1" parent="1">
          <mxGeometry x="-470" y="340" width="120" height="60" as="geometry" />
        </mxCell>
        <mxCell id="x0lHwkU5bO4c8g3vtblC-20" value="DefenseMesh" style="rounded=0;whiteSpace=wrap;html=1;" vertex="1" parent="1">
          <mxGeometry x="-470" y="420" width="120" height="60" as="geometry" />
        </mxCell>
        <mxCell id="x0lHwkU5bO4c8g3vtblC-21" value="SpeedMesh" style="rounded=0;whiteSpace=wrap;html=1;" vertex="1" parent="1">
          <mxGeometry x="-330" y="420" width="120" height="60" as="geometry" />
        </mxCell>
        <mxCell id="x0lHwkU5bO4c8g3vtblC-22" value="AttackMesh" style="rounded=0;whiteSpace=wrap;html=1;" vertex="1" parent="1">
          <mxGeometry x="-330" y="340" width="120" height="60" as="geometry" />
        </mxCell>
        <mxCell id="x0lHwkU5bO4c8g3vtblC-28" value="&lt;div&gt;Pokemon&lt;/div&gt;" style="rounded=0;whiteSpace=wrap;html=1;" vertex="1" parent="1">
          <mxGeometry x="184.5" y="510" width="120" height="60" as="geometry" />
        </mxCell>
        <mxCell id="x0lHwkU5bO4c8g3vtblC-30" value="&lt;div&gt;PokemonType&lt;/div&gt;" style="rounded=0;whiteSpace=wrap;html=1;" vertex="1" parent="1">
          <mxGeometry x="319" y="510" width="120" height="60" as="geometry" />
        </mxCell>
        <mxCell id="x0lHwkU5bO4c8g3vtblC-32" value="Location" style="rounded=0;whiteSpace=wrap;html=1;" vertex="1" parent="1">
          <mxGeometry x="1360" y="640" width="120" height="60" as="geometry" />
        </mxCell>
      </root>
    </mxGraphModel>
  </diagram>
</mxfile>
